# xmcd CD database file generated by Grip 3.2.0
# 
# Track frame offsets:
#       182
#       25982
#       53092
#       72317
#       93460
#       119475
#       133647
#       181530
#       204027
# 
# Disc length: 3177 seconds
# 
# Revision: 3
# Processed by: cddbd v1.5.2PL0 Copyright (c) Steve Scherf et al.
# Submitted via: Grip 3.2.0
# 
DISCID=730c6709
DTITLE=Various Artist - Jazz Sax
DYEAR=1994
DGENRE=Jazz
TTITLE0=Grover Washington, Jr. - Just Enough
TTITLE1=Charlie Rouse - Lil Rousin
TTITLE2=Ben Webster - My Roamnce
TTITLE3=Johnny Hodges with Duke Ellington and his orchestra - Jeep's Blues
TTITLE4=Gerry Mulligan - Capricious
TTITLE5=Harry Carney with Duke Ellington and his orchestra - A Flower Is a Lov
TTITLE5=esome Thing
TTITLE6=Stan Getz - Invitation
TTITLE7=Paul Gonsalves with Duke Ellington and his orchestra - Body and Soul
TTITLE8=Dexter Gordon - Laura
EXTD=YEAR: 1993
EXTT0=
EXTT1=
EXTT2=
EXTT3=
EXTT4=
EXTT5=
EXTT6=
EXTT7=
EXTT8=
PLAYORDER=
